<?xml version="1.0" encoding="UTF-8"?><svg xmlns="http://www.w3.org/2000/svg" xmlns:xlink="http://www.w3.org/1999/xlink" fill-opacity="1" color-rendering="auto" color-interpolation="auto" text-rendering="auto" stroke="black" stroke-linecap="square" width="597" stroke-miterlimit="10" shape-rendering="auto" stroke-opacity="1" fill="black" stroke-dasharray="none" font-weight="normal" stroke-width="1" height="270" font-family="'Dialog'" font-style="normal" stroke-linejoin="miter" font-size="12px" stroke-dashoffset="0" image-rendering="auto">
  <!--Generated by ySVG 2.5-->
  <defs id="genericDefs"/>
  <g>
    <defs id="defs1">
      <linearGradient x1="89.75" gradientUnits="userSpaceOnUse" x2="246" y1="125" y2="231.25" id="linearGradient1" spreadMethod="reflect">
        <stop stop-opacity="1" stop-color="rgb(232,238,247)" offset="0%"/>
        <stop stop-opacity="1" stop-color="rgb(183,201,227)" offset="100%"/>
      </linearGradient>
      <linearGradient x1="481" gradientUnits="userSpaceOnUse" x2="656" y1="147.5" y2="208.75" id="linearGradient2" spreadMethod="reflect">
        <stop stop-opacity="1" stop-color="rgb(232,238,247)" offset="0%"/>
        <stop stop-opacity="1" stop-color="rgb(183,201,227)" offset="100%"/>
      </linearGradient>
      <linearGradient x1="113.8125" gradientUnits="userSpaceOnUse" x2="221.9375" y1="289.5" y2="364.5" id="linearGradient3" spreadMethod="reflect">
        <stop stop-opacity="1" stop-color="rgb(232,238,247)" offset="0%"/>
        <stop stop-opacity="1" stop-color="rgb(183,201,227)" offset="100%"/>
      </linearGradient>
      <clipPath clipPathUnits="userSpaceOnUse" id="clipPath1">
        <path d="M0 0 L597 0 L597 270 L0 270 L0 0 Z"/>
      </clipPath>
      <clipPath clipPathUnits="userSpaceOnUse" id="clipPath2">
        <path d="M74 110 L671 110 L671 380 L74 380 L74 110 Z"/>
      </clipPath>
    </defs>
    <g fill="white" text-rendering="geometricPrecision" shape-rendering="geometricPrecision" transform="translate(-74,-110)" stroke="white">
      <rect x="74" width="597" height="270" y="110" clip-path="url(#clipPath2)" stroke="none"/>
    </g>
    <g fill="url(#linearGradient1)" text-rendering="geometricPrecision" shape-rendering="geometricPrecision" transform="matrix(1,0,0,1,-74,-110)" stroke="url(#linearGradient1)">
      <ellipse rx="78.125" ry="53.125" clip-path="url(#clipPath2)" cx="167.875" cy="178.125" stroke="none"/>
    </g>
    <g text-rendering="geometricPrecision" stroke-miterlimit="1.45" shape-rendering="geometricPrecision" transform="matrix(1,0,0,1,-74,-110)" stroke-linecap="butt">
      <ellipse rx="78.125" fill="none" ry="53.125" clip-path="url(#clipPath2)" cx="167.875" cy="178.125"/>
      <text x="136.1992" xml:space="preserve" y="182.8389" clip-path="url(#clipPath2)" font-family="sans-serif" stroke="none">Web Server</text>
    </g>
    <g fill="url(#linearGradient2)" text-rendering="geometricPrecision" shape-rendering="geometricPrecision" transform="matrix(1,0,0,1,-74,-110)" stroke="url(#linearGradient2)">
      <path d="M481 147.5 L656 147.5 L656 208.75 L481 208.75 Z" stroke="none" clip-path="url(#clipPath2)"/>
    </g>
    <g text-rendering="geometricPrecision" stroke-miterlimit="1.45" shape-rendering="geometricPrecision" transform="matrix(1,0,0,1,-74,-110)" stroke-linecap="butt">
      <path fill="none" d="M481 147.5 L656 147.5 L656 208.75 L481 208.75 Z" clip-path="url(#clipPath2)"/>
      <text x="546.4951" xml:space="preserve" y="182.8389" clip-path="url(#clipPath2)" font-family="sans-serif" stroke="none">Browser</text>
    </g>
    <g fill="url(#linearGradient3)" text-rendering="geometricPrecision" shape-rendering="geometricPrecision" transform="matrix(1,0,0,1,-74,-110)" stroke="url(#linearGradient3)">
      <path d="M113.8125 304.5 C117.0563 289.5 218.6938 289.5 221.9375 304.5 L221.9375 349.5 C218.6938 364.5 117.0563 364.5 113.8125 349.5 Z" stroke="none" clip-path="url(#clipPath2)"/>
    </g>
    <g text-rendering="geometricPrecision" stroke-miterlimit="1.45" shape-rendering="geometricPrecision" transform="matrix(1,0,0,1,-74,-110)" stroke-linecap="butt">
      <path fill="none" d="M113.8125 304.5 C117.0563 289.5 218.6938 289.5 221.9375 304.5 L221.9375 349.5 C218.6938 364.5 117.0563 364.5 113.8125 349.5 Z" clip-path="url(#clipPath2)"/>
      <path fill="none" d="M221.9375 304.5 C218.6938 319.5 117.0563 319.5 113.8125 304.5" clip-path="url(#clipPath2)"/>
      <text x="142.1904" xml:space="preserve" y="331.7139" clip-path="url(#clipPath2)" font-family="sans-serif" stroke="none">Database</text>
    </g>
    <g text-rendering="geometricPrecision" stroke-miterlimit="1.45" shape-rendering="geometricPrecision" transform="matrix(1,0,0,1,-74,-110)" stroke-linecap="butt">
      <path fill="none" d="M253.9754 178.125 L472.979 178.125" clip-path="url(#clipPath2)"/>
    </g>
    <g text-rendering="geometricPrecision" stroke-miterlimit="1.45" shape-rendering="geometricPrecision" transform="matrix(1,0,0,1,-74,-110)" stroke-linecap="butt">
      <path d="M245.9754 178.125 L257.9753 183.125 L254.9754 178.125 L257.9753 173.125 Z" stroke="none" clip-path="url(#clipPath2)"/>
      <path d="M480.979 178.125 L468.979 173.125 L471.979 178.125 L468.979 183.125 Z" clip-path="url(#clipPath2)" stroke="none"/>
      <text x="323.167" xml:space="preserve" y="212.8389" clip-path="url(#clipPath2)" font-family="sans-serif" stroke="none">HTTP / HTTPS</text>
      <path fill="none" d="M167.875 293.2342 L167.875 239.2674" clip-path="url(#clipPath2)"/>
      <path d="M167.875 231.2674 L162.875 243.2674 L167.875 240.2674 L172.875 243.2674 Z" clip-path="url(#clipPath2)" stroke="none"/>
    </g>
  </g>
</svg>
